<svg width="24" height="24" viewBox="0 0 24 24" fill="none" xmlns="http://www.w3.org/2000/svg">
<path d="M10.0824 17H11.384C12.1029 17 12.6857 16.2325 12.6857 15.2857V13.1957C12.6857 12.409 13.0922 11.7233 13.6716 11.5325L14.6576 11.2079C14.8218 11.1538 14.8218 10.8462 14.6576 10.7921L13.6716 10.4675C13.0922 10.2767 12.6857 9.59103 12.6857 8.80439V5H10.0824" stroke="#CBCB41" stroke-width="2"/>
<path d="M7.47914 5H6.17751C5.45864 5 4.87588 5.76751 4.87588 6.71429V8.80439C4.87588 9.59103 4.46939 10.2767 3.88994 10.4675L2.904 10.7921C2.73968 10.8462 2.73968 11.1538 2.904 11.2079L3.88994 11.5325C4.46939 11.7233 4.87588 12.409 4.87588 13.1957V17H7.47914" stroke="#CBCB41" stroke-width="2"/>
</svg>
