<?xml version="1.0" encoding="UTF-8"?>
<svg id="Layer_1" data-name="Layer 1" xmlns="http://www.w3.org/2000/svg" viewBox="0 0 510.87 363.98">
  <defs>
    <style>
      .cls-1 {
        fill: #cbcb41;
      }
    </style>
  </defs>
  <path class="cls-1" d="M216.87,5.48h-72l.04,246.54c-2.09,19.2-2.6,38.19-23.83,45.17-28.49,9.37-51.61-11.36-62.71-35.7L0,298.11c18.1,37.71,53,62.86,95.32,65.42,75.43,4.55,120.8-30.88,121.59-108.51l-.04-249.54Z"/>
  <path class="cls-1" d="M510.87,256.48v7c-2.07,82.11-77.3,107.63-148.36,98.86-45.7-5.64-83.64-32.32-105.66-72.34l58.5-34.54c17.97,29.91,52.91,50.55,88.55,42.56,41.71-9.35,45.45-49.18,8.98-70.05-48.37-27.69-116.19-36.63-131.34-101.66C253.55,6.17,408.22-40.24,475.85,40c2.64,3.13,10.22,13.22,11.53,16.51.43,1.07.95,1.9.04,2.96l-55.05,35.98c-10.32-27.87-59-44.63-76.92-15.9-12.87,20.63-.74,39.32,17.5,50.34,22.82,13.78,52,21.78,75.94,35.06,35.87,19.9,60.62,48.99,61.98,91.52Z"/>
  <path class="cls-1" d="M216.87,5.48l.04,249.54c-.79,77.62-46.16,113.05-121.59,108.51-42.33-2.55-77.22-27.71-95.32-65.42l58.38-36.61c11.1,24.33,34.22,45.06,62.71,35.7,21.22-6.98,21.74-25.97,23.83-45.17l-.04-246.54h72Z"/>
</svg>