<?xml version="1.0" encoding="UTF-8"?>
<svg id="Layer_1" xmlns="http://www.w3.org/2000/svg" version="1.1" viewBox="0 0 23.78 23.27">
  <!-- Generator: Adobe Illustrator 30.1.0, SVG Export Plug-In . SVG Version: 2.1.1 Build 136)  -->
  <defs>
    <style>
      .st0 {
        fill: none;
        stroke: #000;
        stroke-linecap: round;
        stroke-miterlimit: 10;
        stroke-width: 2px;
      }
    </style>
  </defs>
  <path class="st0" d="M6.99,10.32V1.74s.15-1.64,2.93-.05c2.95,1.69,12.05,7.13,12.05,7.13,0,0,1.56.9.38,2.17-1.18,1.28-10.02,4.77-10.02,4.77"/>
  <path class="st0" d="M6.99,12.94c-1.47.06-1.96-.14-2.75.95,0,0-.39.49-.51,1.51-.19,1.53-.31,2.55.19,3.73.19.45.72,1.69,2.08,2.36,1.32.65,2.96.54,4.16-.28,1.15-.8,1.48-1.99,1.8-3.17.35-1.28.62-2.65,0-3.68-.82-1.36-2.22-1.54-4.96-1.42h-.01Z"/>
  <path class="st0" d="M5.41,12.88c.05-.26.21-1.59.76-1.97.44-.31.81-.45,1.77-.44.84.01,1.26.1,1.63.72.22.37.45,1.1.51,1.72"/>
  <line class="st0" x1="1.57" y1="11.71" x2="4.09" y2="13.81"/>
  <line class="st0" x1="1" y1="17.29" x2="3.48" y2="17.31"/>
  <line class="st0" x1="1.31" y1="22.08" x2="4.28" y2="20.33"/>
  <line class="st0" x1="14.13" y1="22.27" x2="11.28" y2="20.6"/>
  <line class="st0" x1="15.02" y1="17.29" x2="12.34" y2="17.29"/>
  <line class="st0" x1="13.86" y1="11.71" x2="11.77" y2="13.87"/>
</svg>